<?xml version="1.0" encoding="UTF-8"?>
<!DOCTYPE svg PUBLIC "-//W3C//DTD SVG 1.1//EN" "http://www.w3.org/Graphics/SVG/1.1/DTD/svg11.dtd">
<svg xmlns="http://www.w3.org/2000/svg" version="1.1" width="300px" height="300px" style="shape-rendering:geometricPrecision; text-rendering:geometricPrecision; image-rendering:optimizeQuality; fill-rule:evenodd; clip-rule:evenodd" xmlns:xlink="http://www.w3.org/1999/xlink">
<g><path style="opacity:0.961" fill="#01243d" d="M 148.5,69.5 C 151.365,69.0548 153.865,69.7215 156,71.5C 156.667,99.1667 156.667,126.833 156,154.5C 152.528,157.418 149.528,157.085 147,153.5C 146.333,126.5 146.333,99.5 147,72.5C 147.513,71.4734 148.013,70.4734 148.5,69.5 Z"/></g>
<g><path style="opacity:0.857" fill="#01243d" d="M 135.5,88.5 C 139.107,88.3785 141.273,90.0452 142,93.5C 142.833,113.175 142.666,132.842 141.5,152.5C 136.435,143.536 131.768,134.369 127.5,125C 128.793,124.51 130.127,124.343 131.5,124.5C 131.333,113.828 131.5,103.161 132,92.5C 132.69,90.6498 133.856,89.3164 135.5,88.5 Z"/></g>
<g><path style="opacity:0.95" fill="#01243d" d="M 165.5,88.5 C 167.679,88.84 169.512,89.84 171,91.5C 171.5,102.495 171.667,113.495 171.5,124.5C 172.978,124.238 174.311,124.571 175.5,125.5C 171,134.5 166.5,143.5 162,152.5C 161.333,132.167 161.333,111.833 162,91.5C 163.145,90.3636 164.312,89.3636 165.5,88.5 Z"/></g>
<g><path style="opacity:0.952" fill="#01243d" d="M 93.5,90.5 C 99.7342,89.3734 104.568,91.3734 108,96.5C 122.062,125.623 136.395,154.623 151,183.5C 165.667,154.167 180.333,124.833 195,95.5C 200.375,89.6619 206.375,88.9952 213,93.5C 215.298,97.2176 215.965,101.218 215,105.5C 197.868,140.265 180.368,174.765 162.5,209C 152.988,214.593 144.488,213.426 137,205.5C 120.667,172.833 104.333,140.167 88,107.5C 85.1496,100.219 86.983,94.5525 93.5,90.5 Z"/></g>
<g><path style="opacity:0.957" fill="#01243d" d="M 74.5,120.5 C 76.5273,120.338 78.5273,120.505 80.5,121C 81.1258,121.75 81.6258,122.584 82,123.5C 82.6667,142.833 82.6667,162.167 82,181.5C 79,184.167 76,184.167 73,181.5C 72.3333,161.833 72.3333,142.167 73,122.5C 73.7172,121.956 74.2172,121.289 74.5,120.5 Z"/></g>
<g><path style="opacity:0.881" fill="#01243d" d="M 222.5,120.5 C 226.49,119.616 229.323,120.949 231,124.5C 231.667,142.833 231.667,161.167 231,179.5C 229.309,183.213 226.475,184.379 222.5,183C 221.874,182.25 221.374,181.416 221,180.5C 220.333,161.5 220.333,142.5 221,123.5C 221.513,122.473 222.013,121.473 222.5,120.5 Z"/></g>
<g><path style="opacity:0.89" fill="#01243d" d="M 88.5,127.5 C 89.3764,127.369 90.0431,127.702 90.5,128.5C 93.3333,134.167 96.1667,139.833 99,145.5C 99.6667,164.833 99.6667,184.167 99,203.5C 95.6667,208.833 92.3333,208.833 89,203.5C 88.5,178.169 88.3334,152.836 88.5,127.5 Z"/></g>
<g><path style="opacity:0.899" fill="#01243d" d="M 213.5,127.5 C 214.663,152.997 214.83,178.663 214,204.5C 212.334,207.379 209.834,208.212 206.5,207C 205.107,205.829 204.273,204.329 204,202.5C 203.333,183.833 203.333,165.167 204,146.5C 207.18,140.14 210.347,133.807 213.5,127.5 Z"/></g>
<g><path style="opacity:0.883" fill="#01243d" d="M 58.5,132.5 C 62.4994,132.074 64.9994,133.741 66,137.5C 66.6667,146.833 66.6667,156.167 66,165.5C 65.5585,168.645 63.7252,170.312 60.5,170.5C 58.2339,170.069 56.7339,168.736 56,166.5C 55.3333,156.5 55.3333,146.5 56,136.5C 56.6622,135.016 57.4955,133.683 58.5,132.5 Z"/></g>
<g><path style="opacity:0.957" fill="#01243d" d="M 240.5,132.5 C 243.325,132.081 245.491,133.081 247,135.5C 247.667,146.167 247.667,156.833 247,167.5C 244,171.5 241,171.5 238,167.5C 237.333,156.833 237.333,146.167 238,135.5C 239.045,134.627 239.878,133.627 240.5,132.5 Z"/></g>
<g><path style="opacity:0.868" fill="#01243d" d="M 42.5,138.5 C 45.5608,138.444 47.7275,139.778 49,142.5C 49.6667,148.5 49.6667,154.5 49,160.5C 45.1808,166.014 41.8475,165.681 39,159.5C 38.3333,154.167 38.3333,148.833 39,143.5C 39.6972,141.416 40.8639,139.749 42.5,138.5 Z"/></g>
<g><path style="opacity:0.861" fill="#01243d" d="M 257.5,138.5 C 260.561,138.444 262.728,139.778 264,142.5C 264.667,148.5 264.667,154.5 264,160.5C 261.761,164.692 258.761,165.359 255,162.5C 253.464,156.251 253.13,149.917 254,143.5C 254.257,141.093 255.424,139.427 257.5,138.5 Z"/></g>
<g><path style="opacity:0.849" fill="#01243d" d="M 105.5,160.5 C 109.12,166.135 112.286,172.135 115,178.5C 115.711,180.367 115.211,181.867 113.5,183C 110.653,183.944 108.153,183.444 106,181.5C 105.5,174.508 105.334,167.508 105.5,160.5 Z"/></g>
<g><path style="opacity:0.887" fill="#01243d" d="M 196.5,160.5 C 197.655,167.321 197.821,174.321 197,181.5C 192.942,184.632 189.775,183.965 187.5,179.5C 190.784,173.266 193.784,166.933 196.5,160.5 Z"/></g>
</svg>
